<svg xmlns="http://www.w3.org/2000/svg" viewBox="0 0 512 512" height="48" width="48">
  <defs>
    <linearGradient id="duotoneGradient" x1="0" y1="0" x2="0" y2="1">
      <stop offset="0%" stop-color="#e0e0e0"/>
      <stop offset="100%" stop-color="#b0b0b0"/>
    </linearGradient>
  </defs>
  <path fill="url(#duotoneGradient)" d="M487.6 315.7l-42.2-24.4c2.6-17.2 2.6-35.1 0-52.3l42.2-24.4c15.1-8.7 21.1-27.6 13.7-43.2-22.2-46.1-61.1-85-107.2-107.2-15.6-7.4-34.5-1.4-43.2 13.7l-24.4 42.2c-17.2-2.6-35.1-2.6-52.3 0l-24.4-42.2c-8.7-15.1-27.6-21.1-43.2-13.7-46.1 22.2-85 61.1-107.2 107.2-7.4 15.6-1.4 34.5 13.7 43.2l42.2 24.4c-2.6 17.2-2.6 35.1 0 52.3l-42.2 24.4c-15.1 8.7-21.1 27.6-13.7 43.2 22.2 46.1 61.1 85 107.2 107.2 15.6 7.4 34.5 1.4 43.2-13.7l24.4-42.2c17.2 2.6 35.1 2.6 52.3 0l24.4 42.2c8.7 15.1 27.6 21.1 43.2 13.7 46.1-22.2 85-61.1 107.2-107.2 7.4-15.6 1.4-34.5-13.7-43.2zM256 336c-44.2 0-80-35.8-80-80s35.8-80 80-80 80 35.8 80 80-35.8 80-80 80z"/>
  <path fill="#222" fill-opacity="0.5" d="M256 176c-44.2 0-80 35.8-80 80s35.8 80 80 80 80-35.8 80-80-35.8-80-80-80zm0 128c-26.5 0-48-21.5-48-48s21.5-48 48-48 48 21.5 48 48-21.5 48-48 48z"/>
</svg>
