<svg xmlns="http://www.w3.org/2000/svg" height="48" width="48" viewBox="0 0 48 48"><path fill="gold" d="M24 31.5q-3.15 0-5.325-2.175Q16.5 27.15 16.5 24q0-3.15 2.175-5.325Q20.85 16.5 24 16.5q3.15 0 5.325 2.175Q31.5 20.85 31.5 24q0 3.15-2.175 5.325Q27.15 31.5 24 31.5Zm0-2.7q2.25 0 3.825-1.575Q29.4 25.65 29.4 23.4q0-2.25-1.575-3.825Q26.25 18 24 18q-2.25 0-3.825 1.575Q18.6 21.15 18.6 23.4q0 2.25 1.575 3.825Q21.75 28.8 24 28.8Zm0-4.8q-1.05 0-1.825-.775Q21.4 22.45 21.4 21.4q0-1.05.775-1.825Q22.95 18.8 24 18.8q1.05 0 1.825.775Q26.6 20.35 26.6 21.4q0 1.05-.775 1.825Q25.05 24 24 24Z"/></svg>
